<svg xmlns="http://www.w3.org/2000/svg" viewBox="0 0 109 124" fill="none" aria-hidden="true">
  <path fill="#95BF47" d="M74.7 14.8c-.1-.7-.6-1.1-1.2-1.1-.6 0-5.3-.4-5.3-.4s-3.5-3.4-3.9-3.8c-.4-.4-1.1-.3-1.4-.2 0 0-.7.2-1.9.6-1.1-3.5-3.1-6.7-6.6-6.7h-.3c-.5-.7-1.3-1.1-2.2-1.1-5.4 0-8 6.8-8.8 10.2-2.1.7-3.6 1.1-3.8 1.2-1.2.4-1.2.4-1.4 1.5C44.8 16.5 24 18.7 24 18.7l-.2.2s1.4 9.1 3.2 18.1c3.9 18.4 17.6 22.9 29.4 23.1 1.8.1 3.5-.1 5.1-.6 2.1.6 4.3.8 6.5.6 4.5-.5 8.4-2.1 11.6-4.5 2.4-1.8 4.5-4.1 6.1-6.8.1-.1.1-.2.2-.3.6-.1 2.4-.6 3.1-.8 1.9-.6 1.7-1.9 1.6-2.2-.1-.3-1.4-10.9-1.4-10.9s-.4-.3-1.1-.7c-.7-.4-1.5-.8-2.1-1.1-.4-1.4-1.1-2.7-2-3.8 1.2-.4 2.1-.7 2.2-.8.6-.2 1.1-.9.9-1.6z"/>
  <path fill="#5E8E3E" d="M73.5 13.7c-.6 0-5.3-.4-5.3-.4s-3.5-3.4-3.9-3.8c-.3-.3-.7-.3-1-.3v89.9c1.6.5 3.3.7 5.1.6 11.8-.2 25.5-4.7 29.4-23.1 1.8-9 3.2-18.1 3.2-18.1l-.2-.2s-20.8-2.2-26.3-2.9c-.2-1.1-.2-1.1-1.4-1.5-.2-.1-1.7-.5-3.8-1.2.7-3.4 3.3-10.2 8.8-10.2.9 0 1.7.4 2.2 1.1h.3c3.5 0 5.5 3.2 6.6 6.7 1.2-.4 1.9-.6 1.9-.6.3-.1 1-.2 1.4.2.4.4 3.9 3.8 3.9 3.8z"/>
  <path fill="#fff" d="M65.6 26.2l-1.2 3.6s-2.8-.9-6.1-.9c-4.9 0-5.2 3.1-5.2 3.8 0 4.2 11 5.8 11 15.9 0 7.9-5 13-11.7 13-8.1 0-12.3-5-12.3-5l2.2-7.2s4.3 3.7 8 3.7c2.4 0 3.3-1.9 3.3-3.3 0-5.8-9-6.1-9-15.5 0-7.7 5.5-15.2 16.6-15.2 4.3 0 6.4 1.1 6.4 1.1z"/>
</svg>
